<svg class="border shadow-md" viewBox="0 0 1013.76 570.24" style="width: 1013.76px; height: 570.24px;" xmlns="http://www.w3.org/2000/svg" preserveAspectRatio="none"><rect class="bg" id="bg" x="0" y="0" width="1013.76" height="570.24" fill="#ffffff"/><g transform="rotate(0 506.88 285.12)"><path d="M -151.72 -21.84 S -87.00 -51.84&#10;            0.00 -21.84 7.72 -47.76&#10;            151.72 -21.84 217.58 -55.84&#10;            303.44 -21.84 320.16 -47.76&#10;            455.16 -21.84 482.88 -58.84&#10;            606.88 -21.84 672.74 -47.76&#10;            758.60 -21.84 794.32 -64.84&#10;            910.32 -21.84 966.04 -60.84&#10;            1062.04 -21.84 1121.76 -60.84&#10;            1213.76 -21.84 1279.62 -59.84&#10;            1365.48 -21.84 h 110 V 770.24 H -151.72 Z" fill="#040E0F" id="-1"/><path d="M -151.72 30.00 S -85.86 -20.00&#10;            0.00 30.00 65.86 4.08&#10;            151.72 30.00 217.58 4.08&#10;            303.44 30.00 352.16 -18.00&#10;            455.16 30.00 521.02 4.08&#10;            606.88 30.00 646.60 -4.00&#10;            758.60 30.00 824.46 -8.00&#10;            910.32 30.00 921.04 -3.00&#10;            1062.04 30.00 1127.90 -10.00&#10;            1213.76 30.00 1279.62 -4.00&#10;            1365.48 30.00 h 110 V 770.24 H -151.72 Z" fill="#03161c" id="0"/><path id="1" d="M -151.72 81.84 S -131.00 47.84&#10;            0.00 81.84 65.86 33.84&#10;            151.72 81.84 202.44 55.92&#10;            303.44 81.84 308.16 55.84&#10;            455.16 81.84 521.02 52.84&#10;            606.88 81.84 672.74 44.84&#10;            758.60 81.84 824.46 35.84&#10;            910.32 81.84 923.04 47.84&#10;            1062.04 81.84 1127.90 38.84&#10;            1213.76 81.84 1279.62 55.92&#10;            1365.48 81.84 h 110 V 770.24 H -151.72 Z" fill="#021e29"/><path id="2" d="M -151.72 133.68 S -85.86 92.68&#10;            0.00 133.68 65.86 107.68&#10;            151.72 133.68 217.58 107.68&#10;            303.44 133.68 318.16 107.76&#10;            455.16 133.68 521.02 96.68&#10;            606.88 133.68 672.74 96.68&#10;            758.60 133.68 774.32 84.68&#10;            910.32 133.68 976.18 83.68&#10;            1062.04 133.68 1127.90 95.68&#10;            1213.76 133.68 1236.48 107.76&#10;            1365.48 133.68 h 110 V 770.24 H -151.72 Z" fill="#012636"/><path id="3" d="M -151.72 185.52 S -85.86 137.52&#10;            0.00 185.52 10.72 137.52&#10;            151.72 185.52 217.58 159.60&#10;            303.44 185.52 366.16 153.52&#10;            455.16 185.52 521.02 159.60&#10;            606.88 185.52 618.60 159.60&#10;            758.60 185.52 805.32 144.52&#10;            910.32 185.52 935.04 159.60&#10;            1062.04 185.52 1125.76 137.52&#10;            1213.76 185.52 1237.48 142.52&#10;            1365.48 185.52 h 110 V 770.24 H -151.72 Z" fill="#002e43"/><path id="4" d="M -151.72 237.36 S -94.00 209.36&#10;            0.00 237.36 65.86 211.44&#10;            151.72 237.36 204.44 211.44&#10;            303.44 237.36 369.30 193.36&#10;            455.16 237.36 521.02 211.44&#10;            606.88 237.36 672.74 211.44&#10;            758.60 237.36 819.32 188.36&#10;            910.32 237.36 976.18 202.36&#10;            1062.04 237.36 1085.76 211.44&#10;            1213.76 237.36 1279.62 211.44&#10;            1365.48 237.36 h 110 V 770.24 H -151.72 Z" fill="#003650"/><path id="5" d="M -151.72 289.20 S -113.00 263.28&#10;            0.00 289.20 65.86 263.28&#10;            151.72 289.20 158.44 263.28&#10;            303.44 289.20 369.30 244.20&#10;            455.16 289.20 521.02 247.20&#10;            606.88 289.20 640.60 263.28&#10;            758.60 289.20 790.32 263.28&#10;            910.32 289.20 976.18 263.28&#10;            1062.04 289.20 1107.76 263.28&#10;            1213.76 289.20 1262.48 263.28&#10;            1365.48 289.20 h 110 V 770.24 H -151.72 Z" fill="#003e5d"/><path id="6" d="M -151.72 341.04 S -98.00 314.04&#10;            0.00 341.04 65.86 298.04&#10;            151.72 341.04 217.58 315.12&#10;            303.44 341.04 324.16 315.12&#10;            455.16 341.04 521.02 315.12&#10;            606.88 341.04 672.74 307.04&#10;            758.60 341.04 824.46 315.12&#10;            910.32 341.04 976.18 315.12&#10;            1062.04 341.04 1127.90 315.12&#10;            1213.76 341.04 1279.62 314.04&#10;            1365.48 341.04 h 110 V 770.24 H -151.72 Z" fill="#00466a"/><path id="7" d="M -151.72 392.88 S -85.86 366.96&#10;            0.00 392.88 -1.28 348.88&#10;            151.72 392.88 217.58 366.96&#10;            303.44 392.88 369.30 366.96&#10;            455.16 392.88 521.02 366.96&#10;            606.88 392.88 637.60 353.88&#10;            758.60 392.88 824.46 366.96&#10;            910.32 392.88 976.18 363.88&#10;            1062.04 392.88 1127.90 349.88&#10;            1213.76 392.88 1279.62 366.96&#10;            1365.48 392.88 h 110 V 770.24 H -151.72 Z" fill="#004e77"/><path id="8" d="M -151.72 444.72 S -97.00 413.72&#10;            0.00 444.72 65.86 418.80&#10;            151.72 444.72 206.44 396.72&#10;            303.44 444.72 341.16 418.80&#10;            455.16 444.72 521.02 418.80&#10;            606.88 444.72 672.74 408.72&#10;            758.60 444.72 824.46 418.80&#10;            910.32 444.72 942.04 403.72&#10;            1062.04 444.72 1117.76 418.80&#10;            1213.76 444.72 1279.62 413.72&#10;            1365.48 444.72 h 110 V 770.24 H -151.72 Z" fill="#005684"/><path id="9" d="M -151.72 496.56 S -105.00 459.56&#10;            0.00 496.56 65.86 465.56&#10;            151.72 496.56 174.44 470.64&#10;            303.44 496.56 369.30 470.64&#10;            455.16 496.56 521.02 450.56&#10;            606.88 496.56 672.74 452.56&#10;            758.60 496.56 824.46 445.56&#10;            910.32 496.56 963.04 467.56&#10;            1062.04 496.56 1127.90 453.56&#10;            1213.76 496.56 1279.62 470.64&#10;            1365.48 496.56 h 110 V 770.24 H -151.72 Z" fill="#005e91"/><path id="10" d="M -151.72 548.40 S -85.86 516.40&#10;            0.00 548.40 65.86 520.40&#10;            151.72 548.40 165.44 522.48&#10;            303.44 548.40 369.30 519.40&#10;            455.16 548.40 521.02 520.40&#10;            606.88 548.40 599.60 503.40&#10;            758.60 548.40 759.32 522.48&#10;            910.32 548.40 976.18 503.40&#10;            1062.04 548.40 1064.76 522.48&#10;            1213.76 548.40 1238.48 498.40&#10;            1365.48 548.40 h 110 V 770.24 H -151.72 Z" fill="#00669e"/></g></svg>